<svg id="Layer_1" data-name="Layer 1" xmlns="http://www.w3.org/2000/svg" xmlns:xlink="http://www.w3.org/1999/xlink" viewBox="0 0 711.55 220.73"><defs><style>.cls-1,.cls-2{fill:#474075;}.cls-1{opacity:0.27;}.cls-3{fill:url(#radial-gradient);}.cls-4{fill:url(#radial-gradient-2);}.cls-5{fill:url(#radial-gradient-3);}.cls-6{fill:url(#radial-gradient-4);}.cls-7{fill:url(#radial-gradient-5);}.cls-8{fill:url(#radial-gradient-6);}.cls-9{fill:url(#radial-gradient-7);}.cls-10{fill:url(#radial-gradient-8);}.cls-11{fill:#35316a;}.cls-12{fill:url(#radial-gradient-9);}.cls-13{fill:url(#radial-gradient-10);}.cls-14{fill:url(#radial-gradient-11);}.cls-15{fill:url(#radial-gradient-12);}.cls-16{fill:url(#radial-gradient-13);}.cls-17{fill:#d1253e;}</style><radialGradient id="radial-gradient" cx="34.8" cy="88.79" r="73.01" gradientTransform="translate(-93.17 120.82) rotate(-88.76) scale(1 1.43)" gradientUnits="userSpaceOnUse"><stop offset="0.09" stop-color="#5b5382"/><stop offset="1" stop-color="#35316a"/></radialGradient><radialGradient id="radial-gradient-2" cx="135.48" cy="67.79" r="51.21" gradientUnits="userSpaceOnUse"><stop offset="0.09" stop-color="#5b5382"/><stop offset="0.38" stop-color="#574f7f"/><stop offset="0.68" stop-color="#4a4477"/><stop offset="0.99" stop-color="#36326a"/><stop offset="1" stop-color="#35316a"/></radialGradient><radialGradient id="radial-gradient-3" cx="235" cy="59.11" r="41.81" xlink:href="#radial-gradient-2"/><radialGradient id="radial-gradient-4" cx="327.81" cy="49.32" r="46.28" xlink:href="#radial-gradient-2"/><radialGradient id="radial-gradient-5" cx="434.83" cy="56.91" r="43.99" xlink:href="#radial-gradient-2"/><radialGradient id="radial-gradient-6" cx="514.33" cy="59.95" r="36.18" xlink:href="#radial-gradient-2"/><radialGradient id="radial-gradient-7" cx="588.41" cy="68.23" r="48.42" xlink:href="#radial-gradient-2"/><radialGradient id="radial-gradient-8" cx="679.15" cy="77.93" r="52.78" xlink:href="#radial-gradient-2"/><radialGradient id="radial-gradient-9" cx="90.94" cy="166.8" r="44.58" gradientTransform="translate(-19.56 1.22) rotate(-6.53) scale(1 1.06)" gradientUnits="userSpaceOnUse"><stop offset="0" stop-color="#c49432"/><stop offset="1" stop-color="#f3e0a3"/></radialGradient><radialGradient id="radial-gradient-10" cx="407.03" cy="112.32" r="44.58" gradientTransform="matrix(1, 0.09, -0.1, 1.06, -36.91, -25.85)" xlink:href="#radial-gradient-9"/><radialGradient id="radial-gradient-11" cx="250.6" cy="152.88" r="44.58" gradientTransform="matrix(1, -0.02, 0.02, 1.06, -29.83, -18.76)" xlink:href="#radial-gradient-9"/><radialGradient id="radial-gradient-12" cx="566.92" cy="86.25" r="44.58" gradientTransform="matrix(0.98, 0.2, -0.21, 1.04, -45.64, -63.91)" xlink:href="#radial-gradient-9"/><radialGradient id="radial-gradient-13" cx="724.11" cy="64.16" r="44.58" gradientTransform="matrix(0.96, 0.29, -0.31, 1.02, -48.78, -106.76)" xlink:href="#radial-gradient-9"/></defs><path class="cls-1" d="M71.56,93.39l-5.74,2.12c0-.32,0-.67,0-1.05,0-2.7.5-5,1-5.2S69.1,90.85,71.56,93.39Z" transform="translate(-3.41 -12.42)"/><path class="cls-1" d="M78.83,40.46c-9.8,13.2-13.6,16.7-12.6,12,1.2-5.5.6-6.9-3.4-9.2-10.5-6-23,.2-29.9,14.7-2.9,6.1-3.1,7.2-3.1,18.5,0,11.1.2,12.4,2.8,17.7,2.78,5.64,6,9.08,10.26,10.92A212.34,212.34,0,0,0,18.81,119a55.36,55.36,0,0,1-3-5.54c-3-6.3-6.5-19.5-6.5-24.3,0-1-1.4-3.1-3-4.5-3.4-3.1-3.9-6.3-1.1-7.2,2.3-.7,3.7-4.3,4.6-11.5,2.8-25,16.8-45.7,34.8-51.6,5.6-1.8,16.3-1.1,22.3,1.5a70.17,70.17,0,0,1,9.5,5.7c4.7,3.4,7.6,4.3,10.8,3.3S88.63,27.36,78.83,40.46Z" transform="translate(-3.41 -12.42)"/><path class="cls-1" d="M183.43,59.16c-2.5-.9-3-1.7-4-7.3-2.3-13.2-12-27.2-22.9-33.2-9.1-5-19.7-6.7-28.5-4.6-17.8,4.2-32.1,22-35.7,44.5-.8,4.8-1.5,6.4-4.2,8.7l-3.3,2.8,3.2,2.8c2.8,2.3,3.5,3.9,4.7,10.3q.22,1.2.51,2.37c8.1-2.92,14.68-5.27,20.25-7.2-3.7-10.16-1.82-23.57,6.34-33.27,7-8.2,20-10.4,28.4-4.8a26.21,26.21,0,0,1,11.48,26c7.43-1.3,15.69-2.55,25.81-4C186.78,60.71,186.08,60,183.43,59.16Z" transform="translate(-3.41 -12.42)"/><path class="cls-1" d="M236.33,14.46a1.69,1.69,0,0,1-1.8,1.5,6.82,6.82,0,0,0-3.9,2.2c-1.8,2-2.1,4.2-2.7,16-.9,17.2-.3,20.7,3.5,22l.27.1c-9.14,1-19,2.13-30.24,3.68-.36-1.1,0-2,1.17-2a5.06,5.06,0,0,0,3.1-1.9c1.5-1.6,1.7-4.2,1.7-19,0-9.5-.3-17.7-.7-18.3a14.4,14.4,0,0,0-4.1-2.4c-1.8-.8-3.1-1.9-2.8-2.4s8.1-1,18.6-1C233.63,13,236.33,13.16,236.33,14.46Z" transform="translate(-3.41 -12.42)"/><path class="cls-1" d="M371.83,47.06c-3.7-22.1-30.9-38.5-54-32.7-15.9,4-29,15.8-32.5,29.4a50.36,50.36,0,0,1-2.4,7.61c6.93-.56,14.09-1.08,21.62-1.53,1.34-5.61,4.87-10.06,10.68-13.58,7.5-4.5,12-5.1,20.2-2.7,6.83,2,13.65,8.48,15.67,14.66,8.08-.07,15.08,0,21,0C372,47.88,371.9,47.49,371.83,47.06Z" transform="translate(-3.41 -12.42)"/><path class="cls-1" d="M434.63,39.26l8.89,12c-12.54-.91-27.34-1.77-43.86-2.34.09-.42.18-.89.27-1.42a157.84,157.84,0,0,0,.2-16.3c-.5-10.4-.8-11.8-2.8-13.4a8.08,8.08,0,0,0-4.1-1.8c-1.9,0-2.5-1.1-1.2-2.3,1.1-1.2,31.1-.8,31.8.4.4.6-.2,1.3-1.4,1.6a2.65,2.65,0,0,0-2.1,2.5C420.33,19.26,426.73,28.76,434.63,39.26Z" transform="translate(-3.41 -12.42)"/><path class="cls-1" d="M477.33,14.46a1.66,1.66,0,0,1-1.7,1.5c-.9,0-2.7,1-4,2.2-2.2,2.1-2.3,2.7-2.3,17.2,0,10.43.37,15.68,1.69,18.23-6-.6-13.41-1.28-22.08-2l.19-10.87c.1-10.2-.2-18.7-.8-20.2a8.47,8.47,0,0,0-4.5-4.2c-2-.8-3.3-1.9-3-2.4s8.1-1,18.6-1C474.63,13,477.33,13.16,477.33,14.46Z" transform="translate(-3.41 -12.42)"/><path class="cls-1" d="M523.43,38.36c.4,14.4.6,16.6,2.3,18.5,1.1,1.2,2.5,2.1,3.3,2.1,1.49,0,1.67,1.2.84,2.52-11.37-2-21.29-3.4-30.07-4.54,3.18-.27,3.53-2.87,3.53-19.18,0-16.6,0-16.9-2.5-19.3-1.3-1.4-3.1-2.5-4-2.5a1.54,1.54,0,0,1-1.5-1.5c0-1.3,2.7-1.5,18-1.5,14.7,0,18,.3,18,1.4,0,.8-1.1,1.7-2.5,2C523.73,17.66,523.13,20.36,523.43,38.36Z" transform="translate(-3.41 -12.42)"/><path class="cls-1" d="M611.73,70.76c2.4-1.3,1.9-4.3-.8-5.6-2.1-.9-2.9-3.2-7.1-20.6-5.1-21.5-5.3-25.4-1.5-27.3,1.4-.7,2.5-1.8,2.5-2.5,0-1-4.1-1.4-17.7-1.6-15.5-.2-17.8,0-17.8,1.3,0,.9,1.1,2,2.5,2.5a6.15,6.15,0,0,1,3.2,2.6c.3,1-.9,8.5-2.7,16.8-4.9,22.4-5.6,24.5-8.5,25.2s-3.1,1.5-.6,3.8c.73.69,1.15,1.19,1,3q11.16,2.5,20.9,5c.41-2,.93-4.35,1.36-5.91l1.1-4,1.2,4.6c.54,2,1.13,4.64,1.56,6.66,8.34,2.21,15.74,4.34,22.05,6.24q-.11-.48-.21-.9C610.43,72.46,610.33,71.56,611.73,70.76Z" transform="translate(-3.41 -12.42)"/><path class="cls-1" d="M674.23,19.56c-2.4,2.6-2.4,2.6-2.4,25.3,0,20,.2,23,1.8,25.4.9,1.5,2.4,2.7,3.2,2.7,2.7,0,1.6,3.7-1.9,6.7l-3.3,2.8.4,12.6.29,7.25c-6-2.47-12.67-5.12-20-7.87V79.36l-3.5-3.4c-3.9-3.8-4.4-5.6-1.6-6.5,4-1.2,4.2-2.6,4.1-25.1,0-23.6-.5-25.7-5.5-27-1.6-.4-2.5-1.3-2.5-2.5,0-1.8,1-1.9,18-1.9,17.3,0,18,.1,18,2,0,1.1-.6,2-1.3,2S675.63,18.16,674.23,19.56Z" transform="translate(-3.41 -12.42)"/><path class="cls-2" d="M448.83,58.36l-5.31-7.14,5.42.41Z" transform="translate(-3.41 -12.42)"/><path class="cls-3" d="M44.63,13.85c-18,5.9-32,26.6-34.8,51.6-.9,7.2-2.3,10.8-4.6,11.5-2.8.9-2.3,4.1,1.1,7.2,1.6,1.4,3,3.5,3,4.5,0,4.8,3.5,18,6.5,24.3,6.2,13.2,15.1,20.3,26.9,21.2,10.7.9,21.2-3.8,32.7-14.3,3.2-3,6.4-5.5,7.1-5.5s2.2-.2,3.3-.3,2-.8,1.9-1.7c-.2-2.2-19.5-24-20.9-23.6-.5.2-1,2.5-1,5.2,0,4.6-.2,4.9-4.7,8-5.6,3.9-10.4,5-15.7,3.5-5.6-1.5-9.5-5.1-12.8-11.8-2.6-5.3-2.8-6.6-2.8-17.7,0-11.3.2-12.4,3.1-18.5,6.9-14.5,19.4-20.7,29.9-14.7,4,2.3,4.6,3.7,3.4,9.2-1,4.7,2.8,1.2,12.6-12s11.7-16.6,8.4-15.6-6.1.1-10.8-3.3a70.17,70.17,0,0,0-9.5-5.7C60.93,12.75,50.23,12.05,44.63,13.85Z" transform="translate(-3.41 -12.42)"/><path class="cls-4" d="M128,13.55c-17.8,4.2-32.1,22-35.7,44.5-.8,4.8-1.5,6.4-4.2,8.7l-3.3,2.8,3.2,2.8c2.8,2.3,3.5,3.9,4.7,10.3,3.6,18.8,16.5,32.3,32.1,33.6,13.8,1.1,26-4.1,38-16.2,8.8-8.8,13.2-16.4,16.1-27.6,1.1-4.5,2.4-7,4.5-8.7,3.6-3.1,3.6-3.9,0-5.1-2.5-.9-3-1.7-4-7.3-2.3-13.2-12-27.2-22.9-33.2C147.43,13.15,136.83,11.45,128,13.55Zm20.2,26.2a26.21,26.21,0,0,1,11.2,27.5c-4,18.1-20.9,29.6-34.7,23.3-15.1-6.8-17.6-30.9-4.9-46C126.83,36.35,139.83,34.15,148.23,39.75Z" transform="translate(-3.41 -12.42)"/><path class="cls-5" d="M199.83,13.45c-.3.5,1,1.6,2.8,2.4a14.4,14.4,0,0,1,4.1,2.4c.4.6.7,8.8.7,18.3,0,14.8-.2,17.4-1.7,19a5.06,5.06,0,0,1-3.1,1.9c-2.4,0-1.3,3.5,1.7,5.3l3,1.8v15c0,17.3-1,21.3-6,23.1-3.3,1.1-3.6,3.4-.4,3.1,15.2-1.7,33-3.6,45.7-4.7,8.8-.8,16-1.6,16.1-1.8.8-1.1,8.6-23.1,8.6-24.3,0-2-.3-1.9-4.6,1-4.9,3.3-8.8,4.2-21.4,5-5.8.3-12.2.8-14.2,1.1l-3.8.6v-19l3.5-2.6c4.2-3.3,4.3-4.1.6-5.4s-4.4-4.8-3.5-22c.6-11.8.9-14,2.7-16a6.82,6.82,0,0,1,3.9-2.2,1.69,1.69,0,0,0,1.8-1.5c0-1.3-2.7-1.5-17.9-1.5C207.93,12.45,200.23,12.85,199.83,13.45Z" transform="translate(-3.41 -12.42)"/><path class="cls-6" d="M317.83,13.85c-15.9,4-29,15.8-32.5,29.4-2.1,8.1-3.2,10.2-5.6,10.8-3.1.8-3,1.8.5,4.6,2,1.6,3.4,4.1,4.5,8.3,7.2,25.5,38.6,37.2,64.8,23.9,10.7-5.4,20.8-18,22.4-28.1.4-2.9,1.3-4.3,3.5-5.5,3.6-2.1,3.6-2.9,0-4.9-2.2-1.3-3.1-2.7-3.6-5.8C368.13,24.45,340.93,8.05,317.83,13.85Zm17.6,19.2c7.1,2.1,14.2,9,15.9,15.4,4.5,16.5-11.7,32.1-29.3,28.1-11.3-2.5-18.1-10.6-18.1-21.7,0-8.3,3.7-14.5,11.3-19.1S327.23,30.65,335.43,33.05Z" transform="translate(-3.41 -12.42)"/><path class="cls-7" d="M392,13.15c-1.3,1.2-.7,2.3,1.2,2.3a8.08,8.08,0,0,1,4.1,1.8c2,1.6,2.3,3,2.8,13.4a157.84,157.84,0,0,1-.2,16.3c-.7,4-1.2,4.9-3.7,5.8-1.6.6-2.9,1.5-2.9,1.9s1.6,1.9,3.5,3.4l3.5,2.6v14.2c0,15.6-.8,18.2-5.8,18.8-5.8.7-2.3,2.3,6.3,2.9,20.3,1.5,33.7.7,25-1.5-5-1.3-5.6-3.7-5.3-23.5l.3-18.2,9.4,12.7c14.8,20,20.1,27.5,20.1,28.5,0,.5-1.2,1.4-2.6,1.9-4.4,1.7-1.8,2.7,9.3,3.4,5.9.4,13.2.9,16.1,1.3,4.4.5,5.2.3,5.2-1.1a1.69,1.69,0,0,0-1.8-1.6,7,7,0,0,1-4-2.3c-2.1-2.2-2.2-3.3-2.2-18.5V61.55l3-1.6c3.5-1.8,3.9-4.2.8-4.7-3.9-.5-4.8-4.2-4.8-20.4,0-14.5.1-15.1,2.3-17.2,1.3-1.2,3.1-2.2,4-2.2a1.66,1.66,0,0,0,1.7-1.5c0-1.3-2.7-1.5-17.9-1.5-10.5,0-18.2.4-18.6,1s1,1.6,3,2.4a8.47,8.47,0,0,1,4.5,4.2c.6,1.5.9,10,.8,20.2l-.3,17.6-14.2-19.1c-7.9-10.5-14.3-20-14.3-21.1a2.65,2.65,0,0,1,2.1-2.5c1.2-.3,1.8-1,1.4-1.6C423.13,12.35,393.13,12,392,13.15Z" transform="translate(-3.41 -12.42)"/><path class="cls-8" d="M495.33,14a1.54,1.54,0,0,0,1.5,1.5c.9,0,2.7,1.1,4,2.5,2.5,2.4,2.5,2.7,2.5,19.3,0,17.4-.4,19.2-4.2,19.2-2.8,0-2.1,2.6,1.4,5.3l3.1,2.5.5,15.6c.4,13.3.2,15.9-1.2,18.1a5.26,5.26,0,0,1-4.1,2.5c-1.6,0-2.5.6-2.5,1.5s.4,1.5.8,1.5,8,.9,16.8,2,16.7,2,17.7,2c2.8,0,2-2-1.3-3.2-5.2-1.8-6-4.8-6-23V65l3-1.7c3.1-1.7,4.1-4.8,1.7-4.8-.8,0-2.2-.9-3.3-2.1-1.7-1.9-1.9-4.1-2.3-18.5-.3-18,.3-20.7,5.4-22,1.4-.3,2.5-1.2,2.5-2,0-1.1-3.3-1.4-18-1.4C498,12.45,495.33,12.65,495.33,14Z" transform="translate(-3.41 -12.42)"/><path class="cls-9" d="M569.33,14c0,.9,1.1,2,2.5,2.5a6.15,6.15,0,0,1,3.2,2.6c.3,1-.9,8.5-2.7,16.8-4.9,22.4-5.6,24.5-8.5,25.2s-3.1,1.5-.6,3.8c1.7,1.6,1.7,2.2-2.6,20.3-2.4,10.3-5.1,19.6-6,20.5a6.16,6.16,0,0,1-4,1.8c-1.5,0-2.3.5-2.1,1.2.4,1.1,27.2,6.6,33.1,6.7,2.4.1,2.2-2.6-.3-3.4-2.7-.8-4.3-4.1-3.6-7.1.7-2.8,2.3-2.9,13-1.1,6.7,1.2,7,1.4,7.8,4.5,1,3.8-.3,6.2-3.3,6.2-2.7,0-2.4,2.9.4,3.5,11.7,2.7,31.2,6.3,31.9,5.9,1.5-1,.8-2.4-1.6-3.4-3.9-1.4-5.3-4.6-8.6-19-1.7-7.4-4-17.3-5.1-21.9-1.8-7.6-1.9-8.5-.5-9.3,2.4-1.3,1.9-4.3-.8-5.6-2.1-.9-2.9-3.2-7.1-20.6-5.1-21.5-5.3-25.4-1.5-27.3,1.4-.7,2.5-1.8,2.5-2.5,0-1-4.1-1.4-17.7-1.6C571.63,12.45,569.33,12.65,569.33,14Zm21.4,61.9.7,3.6H584l.7-4.3c.4-2.3,1.2-6,1.8-8.2l1.1-4,1.2,4.6C589.53,70.15,590.33,73.85,590.73,75.85Z" transform="translate(-3.41 -12.42)"/><path class="cls-10" d="M643.33,14.35c0,1.2.9,2.1,2.5,2.5,5,1.3,5.5,3.4,5.5,27,.1,22.5-.1,23.9-4.1,25.1-2.8.9-2.3,2.7,1.6,6.5l3.5,3.4v20.8c0,20.8,0,20.9-2.4,23.3-1.5,1.5-3.1,2.2-4,1.9-1.1-.4-1.6,0-1.6,1.4,0,1.7,1.9,2.4,15.3,5.6,8.3,2,22.3,5.6,31,8,15.8,4.3,15.9,4.3,16.8,2.2,1.8-4.4,8.1-32.7,7.5-34.2-.5-1.3-1.2-1-4.1,1.5-4.5,3.9-7.7,4-25.1.4l-13.2-2.6-.5-12.6-.4-12.6,3.3-2.8c3.5-3,4.6-6.7,1.9-6.7-.8,0-2.3-1.2-3.2-2.7-1.6-2.4-1.8-5.4-1.8-25.4,0-22.7,0-22.7,2.4-25.3,1.4-1.4,3-2.6,3.8-2.6s1.3-.9,1.3-2c0-1.9-.7-2-18-2C644.33,12.45,643.33,12.55,643.33,14.35Z" transform="translate(-3.41 -12.42)"/><path class="cls-11" d="M87.73,113.19c.1.9-.7,1.6-1.9,1.7s-2.6.2-3.3.3-3.9,2.5-7.1,5.5c-11.5,10.5-22,15.2-32.7,14.3-10-.76-18-6-23.92-15.66a212.34,212.34,0,0,1,24.08-13.92,18.08,18.08,0,0,0,2.54.88c5.3,1.5,10.1.4,15.7-3.5,4.13-2.85,4.64-3.33,4.69-7l5.74-2.12C77.71,100.06,87.59,111.62,87.73,113.19Z" transform="translate(-3.41 -12.42)"/><path class="cls-11" d="M185.52,62.57a17.24,17.24,0,0,1-2.09,2c-2.1,1.7-3.4,4.2-4.5,8.7-2.9,11.2-7.3,18.8-16.1,27.6-12,12.1-24.2,17.3-38,16.2-14.94-1.24-27.4-13.67-31.59-31.23,8.1-2.92,14.68-5.27,20.25-7.2a21.55,21.55,0,0,0,11.24,12.73c13.8,6.3,30.7-5.2,34.7-23.3.11-.49.2-1,.28-1.48C167.14,65.31,175.4,64.06,185.52,62.57Z" transform="translate(-3.41 -12.42)"/><path class="cls-11" d="M271.33,75.79c0,1.2-7.8,23.2-8.6,24.3-.1.2-7.3,1-16.1,1.8-12.7,1.1-30.5,3-45.7,4.7-3.2.3-2.9-2,.4-3.1,5-1.8,6-5.8,6-23.1v-15l-3-1.8a6.59,6.59,0,0,1-2.87-3.32c11.25-1.55,21.1-2.7,30.24-3.68,3.42,1.24,3.22,2.08-.87,5.3l-3.5,2.6v19l3.8-.6c2-.3,8.4-.8,14.2-1.1,12.6-.8,16.5-1.7,21.4-5C271,73.89,271.33,73.79,271.33,75.79Z" transform="translate(-3.41 -12.42)"/><path class="cls-11" d="M375.43,58.09c-2.2,1.2-3.1,2.6-3.5,5.5-1.6,10.1-11.7,22.7-22.4,28.1-26.2,13.3-57.6,1.6-64.8-23.9-1.1-4.2-2.5-6.7-4.5-8.3-3.5-2.8-3.6-3.8-.5-4.6,1.34-.33,2.27-1.14,3.2-3.19,6.93-.56,14.09-1.08,21.62-1.53a23.88,23.88,0,0,0-.62,5.52c0,11.1,6.8,19.2,18.1,21.7,17.6,4,33.8-11.6,29.3-28.1-.07-.25-.14-.49-.23-.74,8.08-.07,15.08,0,21,0h0a6.37,6.37,0,0,0,3.36,4.61C379,55.19,379,56,375.43,58.09Z" transform="translate(-3.41 -12.42)"/><path class="cls-11" d="M478.33,100.89c0,1.4-.8,1.6-5.2,1.1-2.9-.4-10.2-.9-16.1-1.3-11.1-.7-13.7-1.7-9.3-3.4,1.4-.5,2.6-1.4,2.6-1.9,0-1-5.3-8.5-20.1-28.5l-9.4-12.7-.3,18.2c-.3,19.8.3,22.2,5.3,23.5,8.7,2.2-4.7,3-25,1.5-8.6-.6-12.1-2.2-6.3-2.9,5-.6,5.8-3.2,5.8-18.8V61.49l-3.5-2.6c-1.9-1.5-3.5-3-3.5-3.4s1.3-1.3,2.9-1.9c2.17-.78,2.83-1.56,3.43-4.38,16.52.57,31.32,1.43,43.86,2.34l5.31,7.14.11-6.73c8.67.68,16.1,1.36,22.08,2a3.69,3.69,0,0,0,3.11,2.17c3.1.5,2.7,2.9-.8,4.7l-3,1.6v16.1c0,15.2.1,16.3,2.2,18.5a7,7,0,0,0,4,2.3A1.69,1.69,0,0,1,478.33,100.89Z" transform="translate(-3.41 -12.42)"/><path class="cls-11" d="M531.63,108.29c-1,0-9-.9-17.7-2s-16.3-2-16.8-2-.8-.7-.8-1.5.9-1.5,2.5-1.5a5.26,5.26,0,0,0,4.1-2.5c1.4-2.2,1.6-4.8,1.2-18.1l-.5-15.6-3.1-2.5c-3.5-2.7-4.2-5.3-1.4-5.3l.63,0h0c8.78,1.14,18.7,2.56,30.07,4.54a6.91,6.91,0,0,1-2.54,2.28l-3,1.7v16.3c0,18.2.8,21.2,6,23C533.63,106.29,534.43,108.29,531.63,108.29Z" transform="translate(-3.41 -12.42)"/><path class="cls-11" d="M627.53,124.69c-.7.4-20.2-3.2-31.9-5.9-2.8-.6-3.1-3.5-.4-3.5,3,0,4.3-2.4,3.3-6.2-.8-3.1-1.1-3.3-7.8-4.5-10.7-1.8-12.3-1.7-13,1.1-.7,3,.9,6.3,3.6,7.1,2.5.8,2.7,3.5.3,3.4-5.9-.1-32.7-5.6-33.1-6.7-.2-.7.6-1.2,2.1-1.2a6.16,6.16,0,0,0,4-1.8c.9-.9,3.6-10.2,6-20.5s3.51-14.95,3.64-17.32q11.16,2.51,20.9,5c-.17.84-.32,1.62-.44,2.29l-.7,4.3h7.4l-.7-3.6c-.09-.47-.21-1-.34-1.64,8.34,2.21,15.74,4.34,22.05,6.24h0c1.16,4.9,3.28,14,4.88,21,3.3,14.4,4.7,17.6,8.6,19C628.33,122.29,629,123.69,627.53,124.69Z" transform="translate(-3.41 -12.42)"/><path class="cls-11" d="M707.43,142.89c-.9,2.1-1,2.1-16.8-2.2-8.7-2.4-22.7-6-31-8-13.4-3.2-15.3-3.9-15.3-5.6,0-1.4.5-1.8,1.6-1.4.9.3,2.5-.4,4-1.9,2.4-2.4,2.4-2.5,2.4-23.3V94.77c7.32,2.75,14,5.4,20,7.87l.21,5.35,13.2,2.6c17.4,3.6,20.6,3.5,25.1-.4,2.9-2.5,3.6-2.8,4.1-1.5C715.53,110.19,709.23,138.49,707.43,142.89Z" transform="translate(-3.41 -12.42)"/><path class="cls-12" d="M87.13,142.21q-2.09,8.1-4.19,16.21l-15.87,6.17,14.11,9.48q.1,8.66.22,17.32l14.22-11,15.44,4.19-5.51-15q4.62-7.28,9.26-14.55l-17.31.66Z" transform="translate(-3.41 -12.42)"/><path class="cls-13" d="M359,104.62q-3.7,7.51-7.39,15l-16.8,2.83,11.9,12.15q-1.64,8.49-3.29,17l16.16-7.91,14.27,7.23-2.36-15.8,12-12.38-17.09-2.86Z" transform="translate(-3.41 -12.42)"/><path class="cls-14" d="M222.61,113.43q-2.84,7.88-5.68,15.75l-16.38,4.67,13.17,10.75q-.69,8.64-1.39,17.26l15.19-9.66,15,5.61-4.1-15.44L249,128.74l-17.3-1Z" transform="translate(-3.41 -12.42)"/><path class="cls-15" d="M495.73,114l-9,14.12-17,1,10.49,13.38q-2.57,8.27-5.14,16.53L492,152.89l13.38,8.76-.61-16,13.31-11L501.43,130Z" transform="translate(-3.41 -12.42)"/><path class="cls-16" d="M631.34,142.69l-10.25,13.24-17-.6,9.22,14.29-6.63,16,17.42-4.52L636.61,191l.85-16q7.14-4.85,14.26-9.71l-16.17-6.23Q633.45,150.92,631.34,142.69Z" transform="translate(-3.41 -12.42)"/><path class="cls-17" d="M173.45,186.42l8.52-.93,6,16.22q1,2.7,1.62,5.17c.43,1.64.85,3.19,1.25,4.65l.2,0c.07-1.5.14-3.11.21-4.81s.22-3.5.45-5.39l2.44-17.15,8.34-.91,4.74,43.08-6.11.67-1.56-14.25q-.36-3.28-.63-6.31t-.45-5.58c-.12-1.7-.21-3.2-.26-4.51s-.1-2.34-.11-3.1l-.48,0-3.42,28.84-4.14.46-9.65-27.41-.48.06c.15.75.34,1.76.57,3s.46,2.77.72,4.45.51,3.53.77,5.55.52,4.11.76,6.29l1.56,14.26-6.1.67Z" transform="translate(-3.41 -12.42)"/><path class="cls-17" d="M222.79,223.6a16.91,16.91,0,0,1-2.27,0,8.6,8.6,0,0,1-2.46-.49,9.12,9.12,0,0,1-2.42-1.31,9,9,0,0,1-2.17-2.4,15.42,15.42,0,0,1-1.69-3.81,26.51,26.51,0,0,1-1-5.53l-1.32-15.3a26,26,0,0,1,0-5.62,15.08,15.08,0,0,1,1-4,8.83,8.83,0,0,1,1.75-2.68,8.63,8.63,0,0,1,2.17-1.63,9.45,9.45,0,0,1,2.34-.85,16,16,0,0,1,2.18-.34,18.49,18.49,0,0,1,2.15,0,9.79,9.79,0,0,1,2.41.4,8.7,8.7,0,0,1,2.4,1.2,8.36,8.36,0,0,1,2.19,2.33,14.8,14.8,0,0,1,1.72,3.8,27.24,27.24,0,0,1,1,5.61l1.31,15.29a24.85,24.85,0,0,1-.05,5.57,15.81,15.81,0,0,1-1,4,9,9,0,0,1-1.76,2.75,9.93,9.93,0,0,1-2.17,1.72,8.73,8.73,0,0,1-2.28.92A16,16,0,0,1,222.79,223.6Zm-.43-4.93a4.1,4.1,0,0,0,1.65-.48A2.57,2.57,0,0,0,225.1,217a6.63,6.63,0,0,0,.53-2.19,20.47,20.47,0,0,0,0-3.37l-1.7-19.65a21,21,0,0,0-.54-3.44,7.23,7.23,0,0,0-.9-2.18,2.8,2.8,0,0,0-1.29-1.1,4.23,4.23,0,0,0-3.4.3,2.77,2.77,0,0,0-1.11,1.3,7,7,0,0,0-.53,2.3,21,21,0,0,0,.06,3.49l1.7,19.64a18.44,18.44,0,0,0,.53,3.33,6.25,6.25,0,0,0,.9,2.07,2.75,2.75,0,0,0,1.31,1A4.44,4.44,0,0,0,222.36,218.67Z" transform="translate(-3.41 -12.42)"/><path class="cls-17" d="M233.15,178.61l6.71-.49L247.1,212l.28,0,2.3-34.59,6.68-.49-4.73,43.8-7.5.55Z" transform="translate(-3.41 -12.42)"/><path class="cls-17" d="M260.06,177.69l6.56-.44,2.89,43.25-6.56.44Z" transform="translate(-3.41 -12.42)"/><path class="cls-17" d="M273,176.77l5.32-.38,12.56,28.17H291c-.1-.67-.22-1.42-.36-2.24s-.29-1.75-.43-2.8-.29-2.24-.44-3.57-.28-2.83-.4-4.5l-1.14-15.77,5.88-.43,3.11,43.24-5.36.38-12.46-27.42-.2,0c.1.76.23,1.57.38,2.45s.29,1.92.45,3.11.31,2.59.48,4.18.33,3.48.48,5.68l.92,12.7-5.82.42Z" transform="translate(-3.41 -12.42)"/><path class="cls-17" d="M312.42,216.3a11.09,11.09,0,0,1-1.79,0,7.45,7.45,0,0,1-2.13-.55,9,9,0,0,1-2.22-1.36,9.32,9.32,0,0,1-2-2.46,16.08,16.08,0,0,1-1.6-3.86,26.41,26.41,0,0,1-.89-5.54l-1.06-15.32a25.24,25.24,0,0,1,.15-5.62,14.84,14.84,0,0,1,1.15-4,8.86,8.86,0,0,1,1.86-2.66,9.49,9.49,0,0,1,2.3-1.59,10,10,0,0,1,2.41-.82,18,18,0,0,1,2.24-.3,12,12,0,0,1,4.49.41,7.72,7.72,0,0,1,3.08,1.78,7.5,7.5,0,0,1,1.82,2.81,12.81,12.81,0,0,1,.74,3.51,20.26,20.26,0,0,1,0,2.58c-.06.79-.14,1.67-.27,2.62l-5.24.37-.14-2.06q-.48-7.11-4.31-6.85a4.27,4.27,0,0,0-1.77.48,2.94,2.94,0,0,0-1.19,1.29,6.69,6.69,0,0,0-.59,2.29,20.16,20.16,0,0,0,0,3.49l1.35,19.59a19.78,19.78,0,0,0,.47,3.36,6.44,6.44,0,0,0,.88,2.1,2.89,2.89,0,0,0,1.32,1.06,4.16,4.16,0,0,0,1.81.22,3.1,3.1,0,0,0,1.84-.7,4.31,4.31,0,0,0,1.18-1.64,8.47,8.47,0,0,0,.59-2.38,16.66,16.66,0,0,0,0-2.93l-.39-5.65-3.37.23-.3-4.3,9.75-.67,1.51,21.9-4.35.3-1-4a8.77,8.77,0,0,1-2.61,3.65A6.83,6.83,0,0,1,312.42,216.3Z" transform="translate(-3.41 -12.42)"/><path class="cls-17" d="M347.27,204a9.93,9.93,0,0,1,.63-3.55,16.51,16.51,0,0,1,1.5-3.07,20.52,20.52,0,0,1,1.88-2.55l1.71-2,.6-.65-.75-1.35c-.38-.69-.75-1.43-1.11-2.19a25.2,25.2,0,0,1-.94-2.36,21.27,21.27,0,0,1-.66-2.46,13.31,13.31,0,0,1-.24-2.5,8.67,8.67,0,0,1,.67-3.48,8.06,8.06,0,0,1,1.79-2.64A8,8,0,0,1,355,173.5a9.07,9.07,0,0,1,3.26-.59,8.86,8.86,0,0,1,3.74.69,6.59,6.59,0,0,1,2.33,1.72,6,6,0,0,1,1.21,2.21,8,8,0,0,1,.35,2.21,10.58,10.58,0,0,1-.68,3.82,17,17,0,0,1-1.62,3.22,21.12,21.12,0,0,1-2,2.59c-.68.76-1.25,1.41-1.71,1.94l-.48.55,5.71,10.4a18.26,18.26,0,0,0,.59-2.55A17.32,17.32,0,0,0,366,197c0-.49,0-1,0-1.37s0-.83-.07-1.23h4.64a11.19,11.19,0,0,1,.16,1.25c0,.46.06.9.06,1.35a16.36,16.36,0,0,1-.83,5.14,19.67,19.67,0,0,1-2.25,4.63L371.1,213h-5.94l-1.24-2.21a13.6,13.6,0,0,1-3.37,1.9,9.85,9.85,0,0,1-3.61.69,11.56,11.56,0,0,1-3.9-.63,8.73,8.73,0,0,1-3.06-1.83,8.24,8.24,0,0,1-2-3A10.79,10.79,0,0,1,347.27,204Zm5.7-.78a7.7,7.7,0,0,0,.3,2.12,5.61,5.61,0,0,0,.93,1.88,4.65,4.65,0,0,0,1.62,1.35,4.93,4.93,0,0,0,2.34.52,4.81,4.81,0,0,0,2.07-.44,6.4,6.4,0,0,0,1.79-1.24L355.72,196a13.37,13.37,0,0,0-2,3.49A10.14,10.14,0,0,0,353,203.17Zm4.79-15.47c.3-.34.63-.74,1-1.2a12.4,12.4,0,0,0,1.07-1.55,10.35,10.35,0,0,0,.87-1.93,7.46,7.46,0,0,0,.35-2.31,4.07,4.07,0,0,0-.23-1.46,2.88,2.88,0,0,0-.62-1,2.8,2.8,0,0,0-.89-.6,2.84,2.84,0,0,0-1.05-.2,3.44,3.44,0,0,0-1.06.19,2.77,2.77,0,0,0-1,.63,3.44,3.44,0,0,0-.76,1.19,5,5,0,0,0-.3,1.85,8.14,8.14,0,0,0,.13,1.48,10.89,10.89,0,0,0,.38,1.52,17.46,17.46,0,0,0,.7,1.73c.29.62.63,1.31,1,2.08Z" transform="translate(-3.41 -12.42)"/><path class="cls-17" d="M394.14,209a18.7,18.7,0,0,1,.14-2.57c.1-.79.26-1.64.47-2.56l5.1,0,0,2.11a20,20,0,0,0,.24,3.09,7.23,7.23,0,0,0,.73,2.26,3.44,3.44,0,0,0,1.33,1.39,4,4,0,0,0,2,.45,3.78,3.78,0,0,0,2.86-1,4.16,4.16,0,0,0,1-3,11.83,11.83,0,0,0-.16-1.86,7.47,7.47,0,0,0-.49-1.68,12.75,12.75,0,0,0-.94-1.76,23.16,23.16,0,0,0-1.52-2L398,193.59a20.38,20.38,0,0,1-2.85-4.69,13,13,0,0,1-1-5.05,11.52,11.52,0,0,1,.64-4,8.89,8.89,0,0,1,1.92-3.12,8.76,8.76,0,0,1,3.12-2.06A11.57,11.57,0,0,1,404,174a12.29,12.29,0,0,1,4.8.77,8.2,8.2,0,0,1,3.07,2.1,7.89,7.89,0,0,1,1.64,3,12,12,0,0,1,.49,3.28,14,14,0,0,1-.19,2.58c-.14.78-.29,1.65-.47,2.6l-5.08,0,0-2.05a11.26,11.26,0,0,0-1-5.28,3.38,3.38,0,0,0-3.24-1.82,3.5,3.5,0,0,0-2.75,1,4,4,0,0,0-.9,2.76,9.05,9.05,0,0,0,.16,1.65,6.34,6.34,0,0,0,.41,1.36,10.06,10.06,0,0,0,.66,1.2c.26.38.55.79.87,1.21l7.72,9.17a26.62,26.62,0,0,1,3.24,5.19,12.71,12.71,0,0,1,1.16,5.28,11.07,11.07,0,0,1-.69,4.17,8.62,8.62,0,0,1-2,3.16,9.13,9.13,0,0,1-3.23,2,12.42,12.42,0,0,1-4.28.74,13.27,13.27,0,0,1-4.89-.75,8.14,8.14,0,0,1-3.12-2.06,7.54,7.54,0,0,1-1.65-2.93A12.32,12.32,0,0,1,394.14,209Z" transform="translate(-3.41 -12.42)"/><path class="cls-17" d="M425.75,180.82l-6.77-.4.3-5,19.89,1.18-.3,5-6.75-.4-2.21,37-6.37-.38Z" transform="translate(-3.41 -12.42)"/><path class="cls-17" d="M449.71,221.51a16.65,16.65,0,0,1-2.25-.3,8.53,8.53,0,0,1-2.36-.83,8.81,8.81,0,0,1-4-4.32,14.91,14.91,0,0,1-1.13-4,27,27,0,0,1-.19-5.62l.88-15.32a26,26,0,0,1,.83-5.56,15,15,0,0,1,1.61-3.82,8.56,8.56,0,0,1,2.11-2.41,8.33,8.33,0,0,1,2.38-1.3,9.09,9.09,0,0,1,2.44-.51,16.54,16.54,0,0,1,2.21,0,18.79,18.79,0,0,1,2.13.27,8.82,8.82,0,0,1,2.32.74A8.62,8.62,0,0,1,458.9,180a8.82,8.82,0,0,1,1.83,2.62,15.06,15.06,0,0,1,1.15,4,26.14,26.14,0,0,1,.2,5.69l-.88,15.33a24.57,24.57,0,0,1-.85,5.51,16,16,0,0,1-1.61,3.84,8.92,8.92,0,0,1-2.14,2.47,10,10,0,0,1-2.39,1.39,8.61,8.61,0,0,1-2.39.59A15.53,15.53,0,0,1,449.71,221.51Zm.28-4.94a4.15,4.15,0,0,0,1.7-.24,2.63,2.63,0,0,0,1.26-1.07,6.7,6.7,0,0,0,.83-2.1,19.72,19.72,0,0,0,.44-3.34l1.12-19.69a20.55,20.55,0,0,0,0-3.48,7.4,7.4,0,0,0-.58-2.29,2.81,2.81,0,0,0-1.12-1.27,3.93,3.93,0,0,0-1.67-.45,3.85,3.85,0,0,0-1.74.26A2.88,2.88,0,0,0,448.9,184a7.27,7.27,0,0,0-.85,2.2,20.43,20.43,0,0,0-.43,3.46l-1.13,19.69a19.1,19.1,0,0,0,.05,3.37,6.52,6.52,0,0,0,.6,2.18,2.71,2.71,0,0,0,1.15,1.21A4.13,4.13,0,0,0,450,216.57Z" transform="translate(-3.41 -12.42)"/><path class="cls-17" d="M469.62,178.75l7.11.59c.81.07,1.69.18,2.66.32a15.43,15.43,0,0,1,2.86.74,11.48,11.48,0,0,1,2.71,1.41,8.37,8.37,0,0,1,2.23,2.35,11,11,0,0,1,1.39,3.57,17.25,17.25,0,0,1,.22,5.05l-.09,1.08a19.66,19.66,0,0,1-2.09,7.91,8.93,8.93,0,0,1-4.55,4.12l5.49,17.85-6.93-.58-4.39-16.64-2.45-.2-1.35,16.16-6.43-.54Zm5.55,22.92a9.47,9.47,0,0,0,2.94-.14,3.94,3.94,0,0,0,2-1.11,5.75,5.75,0,0,0,1.26-2.29,17.35,17.35,0,0,0,.63-3.63l.29-3.41a11.92,11.92,0,0,0-.07-2.91,4.49,4.49,0,0,0-.85-2.08,4.34,4.34,0,0,0-1.82-1.33,9.92,9.92,0,0,0-2.95-.63l-1-.08-1.46,17.53Z" transform="translate(-3.41 -12.42)"/><path class="cls-17" d="M500.08,181.27l7.51.86,3.06,44-6.61-.75-.3-7.85-7.87-.9-2,7.59-6.63-.76Zm3.46,31.23L503,190.69l-.28,0-5.49,21.11Z" transform="translate(-3.41 -12.42)"/><path class="cls-17" d="M524.72,228.78a12.14,12.14,0,0,1-1.75-.36,7.47,7.47,0,0,1-2-.92,8.57,8.57,0,0,1-1.94-1.73,9.24,9.24,0,0,1-1.58-2.77,16.47,16.47,0,0,1-.9-4.08,26.86,26.86,0,0,1,.09-5.62L518.28,198a25.11,25.11,0,0,1,1.13-5.51,14.9,14.9,0,0,1,1.83-3.73,8.61,8.61,0,0,1,2.3-2.29,9.33,9.33,0,0,1,2.54-1.17,9.81,9.81,0,0,1,2.52-.38,20,20,0,0,1,2.26.09,12.06,12.06,0,0,1,4.35,1.2,7.8,7.8,0,0,1,2.72,2.28,7.66,7.66,0,0,1,1.3,3.09,13,13,0,0,1,.11,3.59,19.38,19.38,0,0,1-.44,2.54c-.2.77-.44,1.62-.72,2.54l-5.23-.57.22-2q.76-7.1-3-7.5a4.31,4.31,0,0,0-1.83.16,3,3,0,0,0-1.39,1.06,6.63,6.63,0,0,0-1,2.15,21.21,21.21,0,0,0-.61,3.44l-2.1,19.52a19.72,19.72,0,0,0-.13,3.39,6.45,6.45,0,0,0,.5,2.22,2.83,2.83,0,0,0,1.12,1.28,4.2,4.2,0,0,0,1.74.53,3.13,3.13,0,0,0,1.93-.36,4.45,4.45,0,0,0,1.45-1.42,8.28,8.28,0,0,0,1-2.24,16.8,16.8,0,0,0,.55-2.87l.6-5.63-3.35-.36.46-4.29,9.72,1.05-2.36,21.82-4.34-.47-.26-4.16a8.88,8.88,0,0,1-3.21,3.14A6.93,6.93,0,0,1,524.72,228.78Z" transform="translate(-3.41 -12.42)"/><path class="cls-17" d="M547.74,188.1l15.94,2-.66,5.14-9.41-1.2L552,206.93l7.28.92L558.6,213l-7.28-.93-1.87,14.73,9.66,1.23-.65,5.13-16.19-2.06Z" transform="translate(-3.41 -12.42)"/></svg>