<svg xmlns="http://www.w3.org/2000/svg" xmlns:xlink="http://www.w3.org/1999/xlink" width="50" zoomAndPan="magnify" viewBox="0 0 37.5 37.499999" height="50" preserveAspectRatio="xMidYMid meet" version="1.0"><defs><clipPath id="9c8e0a392d"><path d="M 0.445312 0.445312 L 36.5625 0.445312 L 36.5625 36.5625 L 0.445312 36.5625 Z M 0.445312 0.445312 " clip-rule="nonzero"/></clipPath></defs><path fill="#100f0d" d="M 18.507812 8.390625 C 16.113281 8.390625 14.171875 10.332031 14.171875 12.726562 C 14.171875 15.121094 16.113281 17.0625 18.507812 17.0625 C 20.902344 17.0625 22.84375 15.121094 22.84375 12.726562 C 22.84375 10.332031 20.902344 8.390625 18.507812 8.390625 " fill-opacity="1" fill-rule="nonzero"/><g clip-path="url(#9c8e0a392d)"><path fill="#100f0d" d="M 18.507812 29.566406 C 18.507812 29.566406 10.367188 18.492188 10.367188 13.996094 C 10.367188 9.503906 14.011719 5.859375 18.507812 5.859375 C 23 5.859375 26.644531 9.503906 26.644531 13.996094 C 26.644531 18.492188 18.507812 29.566406 18.507812 29.566406 Z M 18.507812 0.445312 C 8.53125 0.445312 0.445312 8.53125 0.445312 18.507812 C 0.445312 28.480469 8.53125 36.566406 18.507812 36.566406 C 28.480469 36.566406 36.566406 28.480469 36.566406 18.507812 C 36.566406 8.53125 28.480469 0.445312 18.507812 0.445312 " fill-opacity="1" fill-rule="nonzero"/></g></svg>