<svg xmlns="http://www.w3.org/2000/svg" xmlns:xlink="http://www.w3.org/1999/xlink" width="50" zoomAndPan="magnify" viewBox="0 0 37.5 37.499999" height="50" preserveAspectRatio="xMidYMid meet" version="1.0"><defs><clipPath id="7640df2153"><path d="M 0.476562 0.476562 L 36.300781 0.476562 L 36.300781 36.300781 L 0.476562 36.300781 Z M 0.476562 0.476562 " clip-rule="nonzero"/></clipPath></defs><g clip-path="url(#7640df2153)"><path fill="#000000" d="M 18.386719 0.476562 C 8.472656 0.476562 0.476562 8.554688 0.476562 18.386719 C 0.476562 28.300781 8.550781 36.296875 18.386719 36.296875 C 28.300781 36.296875 36.296875 28.222656 36.296875 18.386719 C 36.296875 8.554688 28.300781 0.476562 18.386719 0.476562 Z M 29.5 27.023438 C 29.019531 28.621094 26.863281 30.941406 24.863281 30.941406 L 24.703125 30.859375 C 21.742188 30.699219 17.667969 27.902344 13.910156 23.34375 L 12.550781 21.664062 C 8.792969 17.109375 6.792969 12.628906 7.273438 9.753906 C 7.59375 7.671875 10.628906 5.996094 12.390625 5.996094 C 13.269531 5.996094 13.589844 6.394531 13.667969 6.714844 C 14.628906 8.472656 15.90625 11.511719 15.90625 12.628906 L 15.90625 12.789062 C 15.667969 13.351562 15.1875 13.667969 14.789062 13.910156 C 14.226562 14.230469 13.910156 14.46875 13.828125 15.03125 C 13.828125 15.1875 13.988281 16.070312 16.46875 19.105469 L 17.507812 20.386719 C 19.984375 23.34375 20.785156 23.664062 20.945312 23.664062 C 21.585938 23.746094 21.824219 23.503906 22.304688 23.023438 C 22.625 22.625 23.023438 22.226562 23.582031 22.144531 L 23.742188 22.144531 C 24.863281 22.386719 27.582031 24.144531 29.179688 25.503906 C 29.421875 25.582031 29.820312 25.984375 29.5 27.023438 Z M 29.5 27.023438 " fill-opacity="1" fill-rule="nonzero"/></g></svg>