<svg xmlns="http://www.w3.org/2000/svg" xmlns:xlink="http://www.w3.org/1999/xlink" width="50" zoomAndPan="magnify" viewBox="0 0 37.5 37.499999" height="50" preserveAspectRatio="xMidYMid meet" version="1.0"><path fill="#000000" d="M 18.273438 0.359375 C 8.378906 0.359375 0.359375 8.378906 0.359375 18.273438 C 0.359375 28.164062 8.378906 36.183594 18.273438 36.183594 C 28.164062 36.183594 36.183594 28.164062 36.183594 18.273438 C 36.183594 8.378906 28.164062 0.359375 18.273438 0.359375 Z M 7.355469 9.703125 L 29.164062 9.703125 C 29.191406 9.703125 29.210938 9.710938 29.234375 9.726562 C 29.253906 9.738281 29.269531 9.757812 29.277344 9.78125 C 29.285156 9.804688 29.289062 9.828125 29.285156 9.851562 C 29.277344 9.875 29.265625 9.894531 29.25 9.914062 L 21.917969 16.871094 L 21.90625 16.882812 L 19.714844 18.960938 C 19.664062 19.011719 19.609375 19.058594 19.550781 19.101562 C 19.496094 19.144531 19.4375 19.1875 19.375 19.226562 C 19.316406 19.265625 19.253906 19.300781 19.1875 19.335938 C 19.125 19.367188 19.058594 19.398438 18.992188 19.425781 C 18.925781 19.449219 18.855469 19.472656 18.789062 19.492188 C 18.71875 19.515625 18.648438 19.53125 18.578125 19.542969 C 18.507812 19.558594 18.4375 19.566406 18.363281 19.574219 C 18.292969 19.582031 18.21875 19.582031 18.148438 19.582031 C 18.078125 19.582031 18.003906 19.578125 17.933594 19.570312 C 17.859375 19.5625 17.789062 19.554688 17.71875 19.539062 C 17.648438 19.527344 17.578125 19.507812 17.507812 19.488281 C 17.441406 19.464844 17.371094 19.441406 17.304688 19.414062 C 17.238281 19.386719 17.171875 19.355469 17.109375 19.324219 C 17.046875 19.289062 16.984375 19.253906 16.925781 19.214844 C 16.863281 19.175781 16.804688 19.132812 16.75 19.085938 C 16.691406 19.042969 16.640625 18.992188 16.585938 18.945312 L 14.558594 16.980469 C 14.558594 16.976562 14.554688 16.972656 14.550781 16.96875 L 7.269531 9.910156 C 7.253906 9.894531 7.242188 9.875 7.238281 9.847656 C 7.230469 9.824219 7.234375 9.800781 7.242188 9.78125 C 7.253906 9.757812 7.265625 9.738281 7.289062 9.722656 C 7.308594 9.710938 7.332031 9.703125 7.355469 9.703125 Z M 6.328125 25.636719 L 6.328125 10.667969 C 6.328125 10.644531 6.332031 10.621094 6.347656 10.601562 C 6.359375 10.582031 6.378906 10.566406 6.398438 10.554688 C 6.421875 10.546875 6.445312 10.542969 6.46875 10.546875 C 6.492188 10.554688 6.515625 10.5625 6.53125 10.582031 L 13.449219 17.289062 C 13.472656 17.308594 13.484375 17.335938 13.484375 17.367188 C 13.488281 17.398438 13.476562 17.425781 13.457031 17.453125 L 6.539062 25.714844 C 6.523438 25.734375 6.503906 25.746094 6.480469 25.753906 C 6.453125 25.757812 6.429688 25.757812 6.40625 25.75 C 6.382812 25.742188 6.363281 25.726562 6.347656 25.703125 C 6.332031 25.683594 6.328125 25.660156 6.328125 25.636719 Z M 29.390625 26.839844 L 7.152344 26.839844 C 7.128906 26.839844 7.109375 26.832031 7.089844 26.820312 C 7.070312 26.808594 7.054688 26.789062 7.042969 26.769531 C 7.035156 26.75 7.03125 26.726562 7.035156 26.703125 C 7.035156 26.679688 7.046875 26.660156 7.0625 26.640625 L 14.164062 18.160156 C 14.171875 18.148438 14.1875 18.136719 14.203125 18.128906 C 14.214844 18.121094 14.230469 18.117188 14.25 18.117188 C 14.265625 18.117188 14.28125 18.117188 14.296875 18.125 C 14.3125 18.128906 14.328125 18.140625 14.339844 18.152344 L 15.894531 19.65625 C 16.042969 19.804688 16.203125 19.933594 16.378906 20.046875 C 16.550781 20.160156 16.734375 20.257812 16.929688 20.335938 C 17.121094 20.414062 17.320312 20.472656 17.523438 20.515625 C 17.726562 20.554688 17.933594 20.574219 18.140625 20.578125 L 18.160156 20.578125 C 18.367188 20.578125 18.570312 20.558594 18.773438 20.519531 C 18.976562 20.480469 19.175781 20.421875 19.367188 20.34375 C 19.558594 20.269531 19.742188 20.175781 19.914062 20.0625 C 20.089844 19.953125 20.25 19.824219 20.398438 19.683594 L 22.121094 18.046875 C 22.132812 18.039062 22.144531 18.027344 22.160156 18.023438 C 22.175781 18.019531 22.191406 18.015625 22.210938 18.015625 C 22.226562 18.015625 22.242188 18.019531 22.257812 18.027344 C 22.273438 18.035156 22.285156 18.046875 22.296875 18.058594 L 29.480469 26.640625 C 29.496094 26.660156 29.503906 26.679688 29.507812 26.703125 C 29.511719 26.726562 29.507812 26.746094 29.5 26.769531 C 29.488281 26.789062 29.472656 26.808594 29.453125 26.820312 C 29.433594 26.832031 29.414062 26.839844 29.390625 26.839844 Z M 30.214844 25.636719 C 30.214844 25.660156 30.207031 25.683594 30.195312 25.703125 C 30.179688 25.726562 30.160156 25.742188 30.136719 25.75 C 30.113281 25.757812 30.089844 25.757812 30.066406 25.75 C 30.039062 25.746094 30.019531 25.730469 30.003906 25.710938 L 23.007812 17.359375 C 22.988281 17.335938 22.980469 17.308594 22.980469 17.277344 C 22.984375 17.246094 22.996094 17.21875 23.019531 17.195312 L 30.011719 10.558594 C 30.03125 10.542969 30.050781 10.53125 30.074219 10.527344 C 30.097656 10.523438 30.121094 10.527344 30.144531 10.535156 C 30.164062 10.542969 30.183594 10.558594 30.195312 10.578125 C 30.210938 10.597656 30.214844 10.621094 30.214844 10.644531 Z M 30.214844 25.636719 " fill-opacity="1" fill-rule="nonzero"/></svg>